<?xml version="1.0" encoding="UTF-8" standalone="no"?>
<!-- Created with Inkscape (http://www.inkscape.org/) -->

<svg
   xmlns:dc="http://purl.org/dc/elements/1.1/"
   xmlns:cc="http://creativecommons.org/ns#"
   xmlns:rdf="http://www.w3.org/1999/02/22-rdf-syntax-ns#"
   xmlns:svg="http://www.w3.org/2000/svg"
   xmlns="http://www.w3.org/2000/svg"
   xmlns:xlink="http://www.w3.org/1999/xlink"
   xmlns:sodipodi="http://sodipodi.sourceforge.net/DTD/sodipodi-0.dtd"
   xmlns:inkscape="http://www.inkscape.org/namespaces/inkscape"
   width="80"
   height="80"
   id="svg2393"
   sodipodi:version="0.32"
   inkscape:version="0.48.1 r9760"
   sodipodi:docname="icon_28.svg"
   inkscape:output_extension="org.inkscape.output.svg.inkscape"
   inkscape:export-filename="/home/rc/repositories/private/qt/qmlcalendar/images/icon_29.png"
   inkscape:export-xdpi="90"
   inkscape:export-ydpi="90"
   version="1.1">
  <defs
     id="defs2395">
    <inkscape:perspective
       sodipodi:type="inkscape:persp3d"
       inkscape:vp_x="0 : 16 : 1"
       inkscape:vp_y="0 : 1000 : 0"
       inkscape:vp_z="32 : 16 : 1"
       inkscape:persp3d-origin="16 : 10.666667 : 1"
       id="perspective2401" />
    <linearGradient
       inkscape:collect="always"
       xlink:href="#linearGradient3322"
       id="linearGradient2548"
       gradientUnits="userSpaceOnUse"
       gradientTransform="matrix(1.213862,0,0,1.213862,1.1564161,1.1564157)"
       x1="31.869062"
       y1="0.16454647"
       x2="32.71846"
       y2="61.444866" />
    <linearGradient
       id="linearGradient3322">
      <stop
         style="stop-color:#ffffff;stop-opacity:1;"
         offset="0"
         id="stop3324" />
      <stop
         style="stop-color:#b4b4b4;stop-opacity:1;"
         offset="1"
         id="stop3326" />
    </linearGradient>
    <linearGradient
       y2="61.444866"
       x2="32.71846"
       y1="0.16454647"
       x1="31.869062"
       gradientTransform="matrix(1.2312062,0,0,1.2371238,0.60140318,-47.587964)"
       gradientUnits="userSpaceOnUse"
       id="linearGradient2565"
       xlink:href="#linearGradient3322"
       inkscape:collect="always" />
    <mask
       maskUnits="userSpaceOnUse"
       id="mask3465">
      <g
         id="g3467"
         transform="matrix(0.38656519,0,0,0.38656519,9.8548606,30.314798)">
        <rect
           transform="translate(0,-48)"
           y="5.8783107"
           x="4.1079493"
           height="66.620216"
           width="75.014725"
           id="rect3469"
           style="fill:#ffffff;fill-opacity:1;fill-rule:nonzero;stroke:#ffffff;stroke-width:10;stroke-linecap:round;stroke-linejoin:miter;stroke-miterlimit:4;stroke-opacity:1;stroke-dasharray:none;stroke-dashoffset:0" />
        <text
           mask="none"
           transform="scale(1.0178302,0.98248214)"
           sodipodi:linespacing="125%"
           id="text3471"
           y="12.008749"
           x="29.52524"
           style="font-size:60.80781174px;font-style:normal;font-variant:normal;font-weight:bold;font-stretch:normal;text-align:start;line-height:125%;writing-mode:lr-tb;text-anchor:start;fill:#000000;fill-opacity:1;stroke:none;font-family:Nimbus Roman No9 L;-inkscape-font-specification:Nimbus Roman No9 L Bold"
           xml:space="preserve"><tspan
             y="12.008749"
             x="29.52524"
             id="tspan3473"
             sodipodi:role="line">!</tspan></text>
      </g>
    </mask>
  </defs>
  <sodipodi:namedview
     id="base"
     pagecolor="#ffffff"
     bordercolor="#666666"
     borderopacity="1.0"
     inkscape:pageopacity="0.0"
     inkscape:pageshadow="2"
     inkscape:zoom="4"
     inkscape:cx="83.50903"
     inkscape:cy="24.305177"
     inkscape:current-layer="layer1"
     showgrid="true"
     inkscape:grid-bbox="true"
     inkscape:document-units="px"
     inkscape:window-width="1366"
     inkscape:window-height="741"
     inkscape:window-x="0"
     inkscape:window-y="0"
     inkscape:window-maximized="1" />
  <metadata
     id="metadata2398">
    <rdf:RDF>
      <cc:Work
         rdf:about="">
        <dc:format>image/svg+xml</dc:format>
        <dc:type
           rdf:resource="http://purl.org/dc/dcmitype/StillImage" />
        <dc:title></dc:title>
      </cc:Work>
    </rdf:RDF>
  </metadata>
  <g
     id="layer1"
     inkscape:label="Layer 1"
     inkscape:groupmode="layer"
     transform="translate(0,48)">
    <path
       style="fill:url(#linearGradient2565);fill-opacity:1"
       d="M 23.357912,28.849039 C 7.2422138,24.816047 1.9639009,16.606897 1.9639009,-8.3099709 c 0,-31.3461941 7.0169676,-37.6850111 38.2132171,-37.6850111 31.196252,0 37.858981,6.694757 37.858981,38.0409498 0,22.8905712 -3.389373,30.1858292 -15.825419,35.7281432 -5.555749,2.476 -31.357203,2.950709 -38.852768,1.074928 z"
       id="path2500"
       inkscape:connector-curvature="0"
       sodipodi:nodetypes="ssssss" />
    <g
       id="g4555"
       transform="translate(-82.5,1)">
      <path
         style="fill:#00a69c"
         d="m 97.3135,19.126 c 0,1.031 0.843,1.874 1.877,1.874 h 46.62 c 1.033,0 1.876,-0.843 1.876,-1.874 v -33.6 h -50.373 v 33.6 z m 26.005,-7.876 c 0,-4.1520001 2.496,-6.5970001 5.055,-8.7410001 1.605,-1.348 2.591,-2.25 2.591,-3.66 0,-1.587 -0.739,-2.265 -2.474,-2.265 -1.398,0 -2.688,0.415 -3.889,0.841 l -0.627,0.223 v -3.616 l 0.336,-0.099 c 1.832,-0.543 3.551,-0.807 5.258,-0.807 5.513,0 6.67,3.026 6.67,5.566 0,3.051 -1.625,4.664 -3.924,6.611 -2.176,1.838 -3.502,3.025 -3.856,4.612 h 7.938 V 13.401 h -13.078 V 11.25 z m -14.714,-1.046 h 4.046 V -2.5150001 l -4.046,0.868 v -3.186 l 6.46,-1.991 h 2.754 V 10.203 h 3.812 v 3.198 h -13.026 v -3.197 z m -0.395,-39.861 v -7.385 c 0,-1.077 0.882,-1.958 1.96,-1.958 h 0.481 c 1.081,0 1.962,0.881 1.962,1.958 v 7.385 c 0,1.075 -0.881,1.956 -1.962,1.956 h -0.481 c -1.078,0 -1.96,-0.881 -1.96,-1.956 z m 24.451,0 v -7.385 c 0,-1.077 0.883,-1.958 1.963,-1.958 h 0.479 c 1.081,0 1.963,0.881 1.963,1.958 v 7.385 c 0,1.075 -0.882,1.956 -1.963,1.956 h -0.479 c -1.08,0 -1.963,-0.881 -1.963,-1.956 z m 15.026,-0.23 v 9.712 h -50.373 v -9.712 h 6.427 c 0.363,3.292 3.115,5.852 6.458,5.852 3.342,0 6.091,-2.56 6.456,-5.852 h 11.538 c 0.364,3.292 3.114,5.852 6.458,5.852 3.341,0 6.093,-2.56 6.455,-5.852 h 6.581 z"
         id="path4523"
         inkscape:connector-curvature="0" />
      <rect
         transform="translate(0,-48)"
         y="38.25"
         x="102.5"
         height="25.25"
         width="40.5"
         id="rect4553"
         style="fill:#00a69c;stroke:#00a69c;stroke-width:6;stroke-linecap:round;stroke-linejoin:round;stroke-miterlimit:4;stroke-opacity:1;stroke-dasharray:none;stroke-dashoffset:0" />
    </g>
    <text
       xml:space="preserve"
       style="font-size:40px;font-style:normal;font-weight:normal;line-height:125%;letter-spacing:0px;word-spacing:0px;fill:#000000;fill-opacity:1;stroke:none;font-family:Sans"
       x="35.25"
       y="51.25"
       id="text4614"
       sodipodi:linespacing="125%"
       transform="translate(0,-48)"><tspan
         sodipodi:role="line"
         id="tspan4616"></tspan></text>
    <text
       xml:space="preserve"
       style="font-size:40px;font-style:normal;font-variant:normal;font-weight:bold;font-stretch:normal;text-align:center;line-height:125%;letter-spacing:0px;word-spacing:0px;text-anchor:middle;fill:#e3dbdb;fill-opacity:1;stroke:none;font-family:Nimbus Sans L;-inkscape-font-specification:Nimbus Sans L Bold"
       x="40.192814"
       y="18.25"
       id="text4664"
       sodipodi:linespacing="125%"><tspan
         sodipodi:role="line"
         id="tspan4666"
         x="40.192814"
         y="18.25">29</tspan></text>
  </g>
</svg>
